<svg width="309" height="273" viewBox="0 0 309 273" fill="none" xmlns="http://www.w3.org/2000/svg">
    <g clip-path="url(#clip0_7205_210348)">
        <path
            d="M213.239 188.18C213.239 188.18 203.759 207.89 197.739 208.09C191.719 208.29 185.719 208.09 185.719 208.09C185.719 208.09 88.2193 291.79 60.7193 264.29C43.7193 247.29 89.7193 226.29 89.7193 226.29C89.7193 226.29 68.4893 221.78 59.7193 216.29C59.7193 216.29 20.8592 248.15 10.7192 239.29C0.579238 230.43 6.71924 214.29 43.7192 201.29C80.7192 188.29 185.729 86.29 185.729 86.29"
            fill="#E47A3A" />
        <path
            d="M244.779 86.01C244.779 86.01 262.469 65.67 255.849 42.48C251.109 25.88 241.689 18.37 232.959 11.93C224.229 5.49001 252.169 -5.09999 271.699 10.97C291.229 27.04 289.819 38.84 289.819 38.84C289.819 38.84 309.749 39.23 304.379 47.26C298.999 55.3 290.679 56.17 290.679 56.17C290.679 56.17 309.539 57.54 305.929 65.94C302.319 74.34 290.019 71.74 290.019 71.74C290.019 71.74 305.449 76.85 300.769 85.95C296.089 95.05 282.089 87.49 282.089 87.49C282.089 87.49 293.959 96.43 288.259 101.65C282.569 106.87 272.449 98.3 272.449 98.3C272.449 98.3 278.399 111.8 270.159 113.41C261.919 115.02 249.829 105.43 249.829 105.43L244.769 86L244.779 86.01Z"
            fill="#DD5534" />
        <path
            d="M255.849 42.47C251.109 25.87 241.689 18.36 232.959 11.92C226.299 7.01 240.979 -0.310001 256.989 3.63C257.469 5.06 257.879 6.52 258.189 7.99C258.349 7.95 258.499 7.89 258.659 7.85C260.699 7.32 263.059 6.95 265.489 6.84C267.619 7.96 269.709 9.31 271.699 10.96C276.409 14.84 279.899 18.46 282.489 21.74C281.959 24.97 280.529 28.25 278.779 31.25C279.939 32.14 281.019 33.25 281.959 34.63C287.389 42.54 283.949 49.76 277.819 55.23C279.399 57.61 280.169 60.53 279.679 64.02C279.119 68.01 276.979 71.14 274.009 73.43C274.219 75.11 273.969 76.9 273.269 78.61C270.919 84.33 265.639 87.57 259.579 87.83C252.919 88.11 249.849 82.19 250.719 77.11C255.139 69.01 259.779 56.24 255.849 42.47V42.47Z"
            fill="#E47A3A" />
        <path
            d="M244.779 86.01C244.779 86.01 262.469 65.67 255.849 42.48C251.109 25.88 241.689 18.37 232.959 11.93C224.229 5.49001 252.169 -5.09999 271.699 10.97C291.229 27.04 289.819 38.84 289.819 38.84C289.819 38.84 309.749 39.23 304.379 47.26C298.999 55.3 290.679 56.17 290.679 56.17C290.679 56.17 309.539 57.54 305.929 65.94C302.319 74.34 290.019 71.74 290.019 71.74C290.019 71.74 305.449 76.85 300.769 85.95C296.089 95.05 282.089 87.49 282.089 87.49C282.089 87.49 293.959 96.43 288.259 101.65C282.569 106.87 272.449 98.3 272.449 98.3C272.449 98.3 278.399 111.8 270.159 113.41C261.919 115.02 249.829 105.43 249.829 105.43L244.769 86L244.779 86.01Z"
            stroke="#514D49" stroke-width="5" stroke-linecap="round" stroke-linejoin="round" />
        <path
            d="M247.73 124.29C234.93 109.75 202.67 120.14 202.73 143.29C202.79 166.44 221.54 168.66 221.54 168.66C213.35 166.03 188.23 173.79 185.99 186.93C183.75 200.07 214.31 199.9 231.23 193.78C248.15 187.66 277.24 171.33 277.73 151.28C278.23 130.78 264.73 95.2801 246.23 86.7801C227.73 78.2801 185.73 86.2801 185.73 86.2801L204.79 182.54L235.23 172.78L236.23 148.78"
            fill="#E47A3A" />
        <path
            d="M180 89.1299C196.63 83.4699 214.26 84.3199 231.52 85.5299C240.04 86.1199 241.03 98.0599 234.35 100.21C235.5 104.61 233.27 109.73 227.45 109.36C227.15 109.34 226.85 109.33 226.56 109.31C226.46 112.93 224.06 116.42 219.33 116.42C218.45 116.42 217.58 116.4 216.7 116.39C210.84 116.45 205.31 117.42 199.66 119.34C194.99 120.93 191.69 117.94 190.77 114.22C188.69 113.91 186.6 113.57 184.53 113.2C179.36 112.26 178.29 107.46 179.86 103.55C172.35 101.77 173.51 91.3499 180.01 89.1299H180Z"
            fill="#DD5534" />
        <path
            d="M56.9895 256.96C57.0795 256.82 57.1595 256.67 57.2595 256.53C62.3395 249.33 67.5995 242.01 73.5895 235.47C81.6995 229.96 89.7295 226.3 89.7295 226.3C89.7295 226.3 87.7495 225.88 84.7595 225.14C88.1495 222.56 91.7695 220.27 95.7195 218.4C100.28 216.23 104.55 218.79 106.31 222.29C108.7 220.44 111.19 218.73 113.89 217.34C120.28 214.04 129.58 211.03 136.51 214.47C138.96 215.69 140.39 217.36 141.08 219.24C144.18 217.57 147.51 216.49 151.36 216.7C160.96 217.24 161.02 232.25 151.36 231.7C147.82 231.5 144.92 234.45 142.2 236.46C138.72 239.03 135.21 241.56 131.64 244.01C125.02 248.56 118.24 252.88 111.31 256.95C106.98 259.5 102.17 262.6 97.0895 265.35C81.8895 270.96 68.5095 272.08 60.7295 264.3C58.3395 261.91 57.1995 259.45 56.9895 256.97V256.96Z"
            fill="#F1B243" />
        <path
            d="M40.5397 202.45C41.8497 203.18 43.1198 204.26 44.3598 205.78C45.1498 206.75 45.8497 207.75 46.4697 208.77C46.9897 208.77 47.5098 208.77 48.0298 208.79C54.7198 208.99 56.7798 216.29 54.1698 220.63C52.9898 221.52 51.6498 222.51 50.2098 223.56C49.5498 223.73 48.8298 223.81 48.0298 223.79C48.0298 223.79 48.0197 223.79 48.0097 223.79C47.5897 224.63 47.0697 225.44 46.4397 226.23C34.1897 234.72 16.9998 244.75 10.7398 239.29C0.899757 230.69 6.39975 215.24 40.5498 202.45H40.5397Z"
            fill="#F1B243" />
        <path
            d="M72.3093 236.35C73.6493 236.63 74.9093 237.15 76.0193 237.85C79.1393 236.39 82.5093 235.38 85.7393 234.8C91.6193 233.74 95.8693 237.08 97.1093 241.37C98.6293 241.02 100.209 241.02 101.669 241.42C106.919 242.86 109.309 248.06 108.309 253.11C107.599 256.7 105.869 259.9 103.569 262.74C85.7593 270.47 69.5993 273.17 60.7293 264.3C51.2093 254.78 61.4593 244 72.3093 236.36V236.35Z"
            fill="#F9D168" />
        <path
            d="M10.7299 239.29C2.9699 232.52 4.75991 221.49 22.5499 210.86C26.6599 212.13 29.1899 215.9 30.3199 220.27C35.2599 222.25 38.7099 227.73 34.9999 233.47C34.9799 233.5 34.9499 233.54 34.9299 233.57C25.1399 239.22 15.1699 243.17 10.7199 239.28L10.7299 239.29Z"
            fill="#F9D168" />
        <path
            d="M213.239 188.18C213.239 188.18 203.759 207.89 197.739 208.09C191.719 208.29 185.719 208.09 185.719 208.09C185.719 208.09 88.2193 291.79 60.7193 264.29C43.7193 247.29 89.7193 226.29 89.7193 226.29C89.7193 226.29 68.4893 221.78 59.7193 216.29C59.7193 216.29 20.8592 248.15 10.7192 239.29C0.579238 230.43 6.71924 214.29 43.7192 201.29C80.7192 188.29 185.729 86.29 185.729 86.29"
            stroke="#514D49" stroke-width="5" stroke-linecap="round" stroke-linejoin="round" />
        <path
            d="M91.3896 57.0601C91.3896 57.0601 81.9696 40.5301 73.2296 34.0401C64.4896 27.5401 45.0796 16.0401 31.9796 18.5001C31.2396 32.6701 28.7497 41.3201 28.3397 48.5401C27.8897 56.5301 29.6696 59.4601 29.6696 59.4601C29.6696 59.4601 22.3296 64.9101 26.2196 68.4601C30.0596 71.9601 37.1497 70.0801 37.1497 70.0801C37.1497 70.0801 21.7197 77.2201 27.5497 80.5601C33.3697 83.8901 36.2797 81.0501 36.2797 81.0501C36.2797 81.0501 23.9896 90.3701 28.7596 94.6501C33.5296 98.9201 45.5597 98.6001 45.5597 98.6001L91.3896 57.0801V57.0601Z"
            fill="#F1B243" stroke="#514D49" stroke-width="5" stroke-linecap="round"
            stroke-linejoin="round" />
        <path
            d="M31.4695 25.29C45.0095 33.51 57.6495 43.16 69.2495 54.15C71.5495 56.33 71.3995 58.95 70.0395 60.92C73.2695 63.16 76.5195 65.38 79.7695 67.59L69.3595 77.02C65.6295 75.05 62.0495 72.79 58.4895 70.49C58.1895 70.77 57.8595 71.03 57.4795 71.23C57.6195 72.99 57.1295 74.78 55.9395 76.31C53.4195 79.51 48.5895 80.61 44.7395 81.1C44.1395 81.18 43.5295 81.23 42.9295 81.27C44.6395 86.77 38.7295 92.62 32.6095 91.84C30.7295 91.6 29.3495 90.68 28.4595 89.46C30.2895 85.92 34.7595 82.23 35.9795 81.27C35.0895 81.88 32.2795 83.24 27.5595 80.54C21.7395 77.21 37.1595 70.06 37.1595 70.06C37.1595 70.06 31.8695 71.46 27.9495 69.58C29.5095 68.78 31.2995 68.36 33.1295 68.36C31.1995 67.82 29.2795 67.22 27.3695 66.56C26.4695 66.25 25.7595 65.8 25.1795 65.28C25.7895 62.34 29.6895 59.45 29.6895 59.45C29.6895 59.45 28.5695 57.59 28.3295 52.84C28.6195 50.82 28.8695 48.98 30.9095 48.2C29.7995 47.37 29.7095 46.53 28.5995 45.69C29.2095 40.32 30.6095 33.99 31.4695 25.28V25.29Z"
            fill="#E47A3A" />
        <path
            d="M91.3896 57.0601C91.3896 57.0601 81.9696 40.5301 73.2296 34.0401C64.4896 27.5401 45.0796 16.0401 31.9796 18.5001C31.2396 32.6701 28.7497 41.3201 28.3397 48.5401C27.8897 56.5301 29.6696 59.4601 29.6696 59.4601C29.6696 59.4601 22.3296 64.9101 26.2196 68.4601C30.0596 71.9601 37.1497 70.0801 37.1497 70.0801C37.1497 70.0801 21.7197 77.2201 27.5497 80.5601C33.3697 83.8901 36.2797 81.0501 36.2797 81.0501C36.2797 81.0501 23.9896 90.3701 28.7596 94.6501C33.5296 98.9201 45.5597 98.6001 45.5597 98.6001L91.3896 57.0801V57.0601Z"
            stroke="#514D49" stroke-width="5" stroke-linecap="round" stroke-linejoin="round" />
        <path
            d="M150.379 202.44C169.649 197.38 161.199 185.95 161.199 185.95C161.199 185.95 165.749 195.19 170.939 191.44C178.409 186.05 164.029 169.07 164.029 169.07C164.029 169.07 174.029 182.3 180.659 176.9C189.599 169.62 172.739 148.98 172.739 148.98C172.739 148.98 184.899 157.68 187.979 150.23C193.659 136.49 170.199 107.29 170.199 107.29C170.199 107.29 186.209 125.11 188.989 119.79C191.769 114.47 182.349 101.89 182.349 101.89C182.349 101.89 187.049 108.13 189.779 103.9C192.509 99.67 184.839 92 184.839 92C184.839 92 193.189 101.26 195.829 92.54C198.219 84.65 189.529 78.21 189.529 78.21C200.149 72.53 203.039 47.84 204.779 32.91C182.809 31.83 139.969 47.74 134.289 61.47C121.549 55.84 108.619 54.2 96.6293 53.61C77.6493 52.67 59.5793 61.18 47.0793 73.69C37.0693 83.71 33.1593 92.03 30.1993 101.39C30.1993 101.39 14.6293 112.64 18.1293 122.82C19.8793 127.91 27.1193 123.26 27.1193 123.26C27.1193 123.26 14.1993 136.14 16.0493 144.74C17.8993 153.34 31.4893 156.51 31.4893 156.51"
            fill="#F1B243" />
        <path
            d="M59.3394 83.1601C65.4694 83.6001 71.5994 84.0501 77.7194 84.4901C68.5794 76.7201 74.1194 61.0701 86.6794 61.4801C96.7794 61.8201 106.879 62.1501 116.989 62.4901C130.049 62.9201 132.019 78.8301 124.309 85.5301C129.629 89.3101 132.409 97.9201 127.919 103.51C124.049 108.33 119.549 110.67 114.639 111.71C118.229 118.74 114.619 129.76 105.909 130.56C103.319 130.8 100.729 131.03 98.1394 131.27C97.8694 133.05 97.2094 134.74 96.0694 136.16C89.7694 143.99 79.4294 148.45 69.6394 144.04C63.2394 141.16 59.0794 134.69 61.4694 127.56C61.9294 126.21 62.6794 124.92 63.6194 123.76C62.8794 120.69 62.9994 117.32 64.0894 114.46C59.5194 112.57 55.1694 110.22 51.4294 106.99C46.9794 103.16 44.2794 97.9601 46.2894 92.0001C48.0894 86.6501 53.6594 82.7701 59.3394 83.1801V83.1601ZM78.6294 119.67C79.0594 119.83 78.9594 119.72 78.6294 119.67V119.67Z"
            fill="#F9D168" />
        <path
            d="M132.589 154.74C122.699 150.99 117.589 142.6 117.159 132.26C116.749 122.34 117.579 112.53 119.289 102.82C119.189 102.47 119.099 102.1 119.019 101.73C117.799 96.2801 118.829 89.1501 122.139 84.5301C128.519 75.6301 143.669 69.8501 153.279 77.9801C153.559 78.2101 153.809 78.4501 154.079 78.6901C158.449 81.2301 161.569 84.8501 163.399 89.0901C167.049 94.5201 169.429 100.58 170.299 107.4C170.239 107.34 170.199 107.29 170.199 107.29C170.199 107.29 170.239 107.34 170.299 107.42C170.539 109.31 170.679 111.25 170.689 113.26C170.729 124.92 165.779 136.73 158.469 145.66C152.309 153.2 142.539 158.51 132.579 154.74H132.589Z"
            fill="#F5C345" />
        <path
            d="M149.449 87.27C145.229 83.56 149.219 77.63 153.849 77.35C152.629 74.61 153.509 71.05 156.379 69.53C155.989 68.06 156.169 66.38 157.069 64.75C160.879 57.87 168.099 54.63 175.389 52.67C184.289 50.28 193.509 49.11 202.689 48.48C201.999 52.59 201.149 56.75 200.059 60.63C193.699 61.19 187.389 62.19 181.169 63.61C180.299 63.81 179.419 64.01 178.539 64.23C183.999 64.97 189.449 65.72 194.909 66.46C195.939 66.56 196.969 66.69 197.999 66.82C195.939 72.01 193.249 76.14 189.679 78.13C188.569 78.07 189.459 78.02 188.349 78C190.079 78.62 189.799 79.26 191.469 79.95C193.879 82.38 197.479 87.12 195.829 92.55C195.159 94.77 194.109 95.82 192.929 96.16C191.059 95.51 189.189 94.87 187.319 94.25C186.389 93.54 185.639 92.82 185.209 92.4C185.529 92.75 186.039 93.31 186.619 94.03C184.959 93.48 183.309 92.92 181.649 92.4C182.749 93.65 183.739 95.01 184.499 96.54C185.719 99.01 185.079 101.53 183.539 103.22C182.819 102.51 182.359 101.9 182.359 101.9C182.359 101.9 182.769 102.45 183.399 103.37C182.939 103.85 182.399 104.26 181.819 104.57C183.729 107.63 185.389 110.86 186.699 114.31C187.589 116.67 187.029 118.85 185.789 120.47C180.229 118.44 170.209 107.3 170.209 107.3C170.209 107.3 175.889 114.37 180.979 123.19C178.979 123.35 177.019 122.41 176.049 119.85C170.899 106.28 160.089 96.64 149.449 87.27Z"
            fill="#E47A3A" />
        <path
            d="M27.1297 123.28C27.1297 123.28 19.8897 127.93 18.1397 122.84C14.6397 112.66 30.2097 101.41 30.2097 101.41C33.1697 92.04 37.0897 83.73 47.0897 73.71C50.6097 70.19 54.5797 67 58.8697 64.23C69.2897 68.5 77.4297 81 72.6597 92.43C66.9497 106.11 60.2597 119.41 52.3897 131.98C46.1397 141.96 30.9897 145.51 21.2497 138.53C20.0497 137.67 18.9497 136.72 17.9497 135.7C21.1997 129.21 27.1297 123.29 27.1297 123.29V123.28Z"
            fill="#F5C345" />
        <path
            d="M143.729 204.29C162.999 199.23 161.199 185.95 161.199 185.95C161.199 185.95 165.749 195.19 170.939 191.44C178.409 186.05 164.029 169.07 164.029 169.07C164.029 169.07 174.029 182.3 180.659 176.9C189.599 169.62 172.739 148.98 172.739 148.98C172.739 148.98 184.899 157.68 187.979 150.23C193.659 136.49 170.199 107.29 170.199 107.29C170.199 107.29 186.209 125.11 188.989 119.79C191.769 114.47 182.349 101.89 182.349 101.89C182.349 101.89 187.049 108.13 189.779 103.9C192.509 99.67 184.839 92 184.839 92C184.839 92 193.189 101.26 195.829 92.54C198.219 84.65 189.529 78.21 189.529 78.21C200.149 72.53 203.039 47.84 204.779 32.91C182.809 31.83 139.969 47.74 134.289 61.47C121.549 55.84 108.619 54.2 96.6293 53.61C77.6493 52.67 59.5793 61.18 47.0793 73.69C37.0693 83.71 33.1593 92.03 30.1993 101.39C30.1993 101.39 14.6293 112.64 18.1293 122.82C19.8793 127.91 27.1193 123.26 27.1193 123.26C27.1193 123.26 14.1993 136.14 16.0493 144.74C17.8993 153.34 31.4893 156.51 31.4893 156.51"
            stroke="#514D49" stroke-width="5" stroke-linecap="round" stroke-linejoin="round" />
        <path
            d="M91.7995 127.69C91.1595 139.06 95.4295 150.31 112.439 151.27C123.829 151.91 132.469 141.27 133.109 129.9C133.749 118.53 126.249 109.48 114.859 108.34C102.799 107.13 92.4395 116.32 91.7995 127.7V127.69Z"
            fill="#FFFEFC" stroke="#514D49" stroke-width="5" stroke-linecap="round"
            stroke-linejoin="round" />
        <path
            d="M91.6994 127.24C91.1194 137.55 97.3694 150.41 106.389 150.92C115.409 151.43 124.079 139.22 124.659 128.91C125.239 118.6 118.099 110 109.079 109.49C100.059 108.98 92.2794 116.93 91.6994 127.23V127.24Z"
            fill="#514D49" />
        <path
            d="M34.8701 122.52C33.6401 132.66 34.4601 141.1 41.5801 141.97C48.7101 142.83 59.4501 135.79 60.6801 125.65C61.9101 115.51 60.2201 105.95 53.0901 105.09C45.9601 104.23 36.0901 112.38 34.8601 122.53L34.8701 122.52Z"
            fill="#FFFEFC" stroke="#514D49" stroke-width="5" stroke-linecap="round"
            stroke-linejoin="round" />
        <path
            d="M46.6599 108.33C52.9699 109.09 53.6999 116.73 52.7399 124.68C51.7799 132.63 45.8899 138.46 39.5799 137.69C37.9599 137.49 36.4699 136.87 35.1599 135.93C34.1499 132.42 34.2399 127.69 34.8699 122.51C35.5599 116.83 38.9599 111.77 43.0699 108.57C44.3199 108.29 45.5399 108.19 46.6599 108.32V108.33Z"
            fill="#514D49" />
        <path
            d="M9.50949 191.13C5.06949 184.96 2.1795 178.25 2.5495 171.72C3.2895 158.67 8.58951 153.93 8.58951 153.93C8.58951 153.93 11.4095 148.55 25.2795 143.79C39.1495 139.03 53.5095 138.7 53.5095 138.7C53.5095 138.7 55.0195 134.38 58.5095 135.09C61.9995 135.8 61.4095 137.27 61.4095 137.27C61.2495 137.28 63.5295 135.37 66.5395 135.54C70.6895 135.77 71.3295 139.84 71.3295 139.84C71.3295 139.84 73.4495 137.94 77.2795 138.89C79.7195 139.49 81.1495 144.43 81.1495 144.43C81.1495 144.43 88.1795 144.83 110.929 152.15C129.789 158.22 147.169 176.23 147.729 189.3"
            fill="#F9D168" />
        <path
            d="M9.50949 191.13C5.06949 184.96 2.1795 178.25 2.5495 171.72C3.2895 158.67 8.58951 153.93 8.58951 153.93C8.58951 153.93 11.4095 148.55 25.2795 143.79C39.1495 139.03 53.5095 138.7 53.5095 138.7C53.5095 138.7 55.0195 134.38 58.5095 135.09C61.9995 135.8 61.4095 137.27 61.4095 137.27C61.2495 137.28 63.5295 135.37 66.5395 135.54C70.6895 135.77 71.3295 139.84 71.3295 139.84C71.3295 139.84 73.4495 137.94 77.2795 138.89C79.7195 139.49 81.1495 144.43 81.1495 144.43C81.1495 144.43 88.1795 144.83 110.929 152.15C129.789 158.22 147.169 176.23 147.729 189.3"
            stroke="#514D49" stroke-width="5.03" stroke-linecap="round" stroke-linejoin="round" />
        <path
            d="M142.729 188.29C141.599 208.37 121.529 214.19 79.6695 215.27C65.9995 215.62 45.2195 209.89 26.5995 200.78C20.0795 197.59 8.0895 189.66 9.7695 177.67"
            fill="#F9D168" />
        <path
            d="M142.729 188.29C141.599 208.37 121.529 214.19 79.6695 215.27C65.9995 215.62 45.2195 209.89 26.5995 200.78C20.0795 197.59 8.0895 189.66 9.7695 177.67"
            stroke="#514D49" stroke-width="5.03" stroke-linecap="round" stroke-linejoin="round" />
        <path
            d="M4.80943 183.97C4.93943 183.74 5.06943 183.5 5.20943 183.29C5.82943 182.35 6.52943 181.53 7.27943 180.81C7.41943 179.34 7.76943 177.84 8.36943 176.32C11.4194 168.69 18.8194 165.06 26.7694 167.2C33.3894 168.98 39.9094 171.15 46.2994 173.67C49.5694 167.88 57.2594 163.99 63.6894 166.78C65.2194 167.44 66.7494 168.13 68.2694 168.82C71.5294 162.57 78.9594 159.7 85.7894 161.74C103.539 167.05 119.189 176.52 132.789 188.99C134.969 190.99 136.109 193.7 136.399 196.57C131.969 208.16 118.829 213.07 92.2494 214.73C91.2694 214.09 90.2794 213.47 89.2894 212.84C89.0594 213.28 88.8094 213.71 88.5294 214.13C88.3394 214.42 88.1194 214.69 87.9094 214.97C85.2794 215.1 82.5394 215.2 79.6594 215.27C74.1294 215.41 67.4194 214.54 60.1694 212.87C57.3894 211.18 54.5994 209.59 51.7594 208.09C51.4694 208.86 51.1094 209.6 50.6794 210.31C42.7294 207.87 34.4694 204.63 26.5794 200.78C21.3494 198.22 8.69941 192.38 4.78941 183.97H4.80943Z"
            fill="#F1B243" />
        <path
            d="M75.83 150.5C77.1 156.2 65.06 164.96 56.76 163.65C48.46 162.34 41.89 155.3 42.81 148.64C43.73 141.98 56.26 142.68 63.73 143.94C71.34 145.22 75.07 147.13 75.82 150.5H75.83Z"
            fill="#514D49" />
        <path
            d="M66.5 171.8C66.5 171.8 60.47 173.52 61.69 185.63C62.69 195.56 50.12 199.59 44.11 193.71C36.47 186.23 39.84 174.58 46.53 168.66"
            fill="#E1737D" />
        <path
            d="M66.5 171.8C66.5 171.8 60.47 173.52 61.69 185.63C62.69 195.56 50.12 199.59 44.11 193.71C36.47 186.23 39.84 174.58 46.53 168.66"
            stroke="#514D49" stroke-width="5.03" stroke-linecap="round" stroke-linejoin="round" />
        <path
            d="M55.6299 168.17C55.6299 168.17 54.0099 170.53 52.2199 175.03C49.8699 180.94 50.7099 184.01 50.7099 184.01"
            stroke="#514D49" stroke-width="5.03" stroke-linecap="round" stroke-linejoin="round" />
        <path
            d="M86.1299 180.97C75.1999 178.34 67.6699 168.85 54.6199 168.11C41.5699 167.37 38.5199 170.47 33.2999 171.9"
            stroke="#514D49" stroke-width="5.03" stroke-linecap="round" stroke-linejoin="round" />
        <path d="M56.3301 164.68L56.1301 168.2" stroke="#514D49" stroke-width="5.03"
            stroke-linecap="round" stroke-linejoin="round" />
        <path
            d="M142.729 188.29C141.599 208.37 121.529 214.19 79.6695 215.27C65.9995 215.62 45.2195 209.89 26.5995 200.78C20.0795 197.59 8.0895 189.66 9.7695 177.67"
            stroke="#514D49" stroke-width="5.03" stroke-linecap="round" stroke-linejoin="round" />
        <path
            d="M9.50949 191.13C5.06949 184.96 2.1795 178.25 2.5495 171.72C3.2895 158.67 8.58951 153.93 8.58951 153.93C8.58951 153.93 11.4095 148.55 25.2795 143.79C39.1495 139.03 53.5095 138.7 53.5095 138.7C53.5095 138.7 55.0195 134.38 58.5095 135.09C61.9995 135.8 61.4095 137.27 61.4095 137.27C61.2495 137.28 63.5295 135.37 66.5395 135.54C70.6895 135.77 71.3295 139.84 71.3295 139.84C71.3295 139.84 73.4495 137.94 77.2795 138.89C79.7195 139.49 81.1495 144.43 81.1495 144.43C81.1495 144.43 88.1795 144.83 110.929 152.15C129.789 158.22 147.169 176.23 147.729 189.3"
            stroke="#514D49" stroke-width="5.03" stroke-linecap="round" stroke-linejoin="round" />
        <path
            d="M114.2 98.0999C113.86 98.0199 113.51 97.9399 113.16 97.8699L115.14 98.2499C113.18 97.8799 111.2 97.7699 109.21 97.9199L111.22 97.7599C109.59 97.8899 107.99 98.1999 106.43 98.6699C105.42 98.9299 104.42 98.9099 103.44 98.6399C102.45 98.5399 101.53 98.1899 100.71 97.5899C99.21 96.5899 97.83 94.7299 97.52 92.9199C97.19 90.9799 97.41 88.8299 98.6 87.1899L99.86 85.7399C100.85 84.8599 101.98 84.2799 103.27 83.9999C105.82 83.2299 108.48 82.9599 111.13 82.8799C113.78 82.7999 116.43 83.2599 119.01 83.8699C119.97 84.1599 120.8 84.6499 121.48 85.3499C122.27 85.9199 122.87 86.6599 123.29 87.5599C124.14 89.2199 124.4 91.6099 123.72 93.3699C123.04 95.1299 121.81 96.8299 120.03 97.6499L118.2 98.2999C116.85 98.5799 115.53 98.5099 114.22 98.0799L114.2 98.0999Z"
            fill="#E47A3A" />
        <path
            d="M63.4596 94.7999C60.0896 93.6499 56.7196 92.4899 53.3496 91.3399C51.5596 90.7299 49.9296 89.3299 49.0696 87.6499C48.5696 86.7599 48.3296 85.8099 48.3396 84.8199C48.1696 83.8099 48.2696 82.8199 48.6396 81.8399C49.3296 80.0599 50.5496 78.3799 52.3296 77.5599C54.1096 76.7399 56.1996 76.4599 58.1396 77.1299C61.5096 78.2799 64.8796 79.4399 68.2496 80.5899C70.0396 81.1999 71.6696 82.5999 72.5296 84.2799C73.0296 85.1699 73.2696 86.1199 73.2596 87.1099C73.4296 88.1199 73.3296 89.1099 72.9596 90.0899C72.2696 91.8699 71.0496 93.5499 69.2696 94.3699C67.4896 95.1899 65.3996 95.4699 63.4596 94.7999Z"
            fill="#E47A3A" />
        <path
            d="M185.99 186.94C188.08 174.65 210.16 167.08 219.72 168.29C215.02 167.04 202.78 162 202.73 143.3C202.68 124.69 223.51 114.34 238.33 118.54L233.18 115.39C255.04 123.95 270.72 144.87 270.72 167.3C270.72 167.57 270.7 167.83 270.7 168.1C260.93 180.19 243.09 189.51 231.22 193.8C214.3 199.91 183.74 200.09 185.98 186.95L185.99 186.94Z"
            fill="#F1B243" />
        <path
            d="M247.73 124.29C234.93 109.75 202.67 120.14 202.73 143.29C202.79 166.44 221.54 168.66 221.54 168.66C213.35 166.03 188.23 173.79 185.99 186.93C183.75 200.07 214.31 199.9 231.23 193.78C248.15 187.66 277.24 171.33 277.73 151.28C278.23 130.78 264.73 95.2799 246.23 86.7799C227.73 78.2799 195.39 84.5 195.39 84.5"
            stroke="#514D49" stroke-width="5" stroke-linecap="round" stroke-linejoin="round" />
    </g>
    <defs>
        <clipPath id="clip0_7205_210348">
            <rect width="308.89" height="272.34" fill="white" transform="matrix(-1 0 0 1 308.89 0)" />
        </clipPath>
    </defs>
</svg>