<svg width="231" height="290" viewBox="0 0 231 290" fill="none" xmlns="http://www.w3.org/2000/svg">
<g clip-path="url(#clip0_7205_210294)">
<path d="M33.9103 213.74C31.8703 229.61 30.2103 263.64 39.7303 277.97C49.2503 292.3 57.1003 282.56 57.9803 278.59C58.8603 274.62 54.3303 240.35 54.3303 240.35L33.9203 213.74H33.9103Z" fill="#F1B243" stroke="#514D49" stroke-width="5" stroke-linecap="round" stroke-linejoin="round"/>
<path d="M48.7602 254.73C50.9002 256.68 52.4302 259.07 53.3702 261.63C54.8602 262.92 56.1802 264.41 57.3302 266.02C57.9202 272.08 58.2802 277.2 57.9702 278.59C57.0902 282.56 49.2402 292.3 39.7202 277.97C35.3802 271.44 33.3702 260.81 32.6502 249.68C37.9102 247.47 44.8602 251.2 48.7502 254.73H48.7602Z" fill="#F9D168"/>
<path d="M33.9103 213.74C31.8703 229.61 30.2103 263.64 39.7303 277.97C49.2503 292.3 57.1003 282.56 57.9803 278.59C58.8603 274.62 54.3303 240.35 54.3303 240.35L33.9203 213.74H33.9103Z" stroke="#514D49" stroke-width="5" stroke-linecap="round" stroke-linejoin="round"/>
<path d="M170.001 246.29C170.001 246.29 190.411 240.45 196.001 222.29C200.001 209.29 197.001 200.29 194.001 192.29C191.001 184.29 214.001 189.29 220.001 208.29C226.001 227.29 220.001 234.48 220.001 234.48C220.001 234.48 233.001 243.29 226.001 246.29C219.001 249.29 213.131 246.29 213.131 246.29C213.131 246.29 225.001 255.29 219.001 259.29C213.001 263.29 206.001 256.29 206.001 256.29C206.001 256.29 214.001 266.29 207.001 270.29C200.001 274.29 194.001 263.29 194.001 263.29C194.001 263.29 198.001 274.29 192.001 275.29C186.001 276.29 183.001 266.29 183.001 266.29C183.001 266.29 181.131 277.76 175.001 275.29C168.871 272.82 165.001 261.29 165.001 261.29L170.001 246.29V246.29Z" fill="#484848" stroke="#514D49" stroke-width="5" stroke-linecap="round" stroke-linejoin="round"/>
<path d="M196.001 222.29C200.001 209.29 197.001 200.29 194.001 192.29C191.711 186.19 204.551 187.66 213.431 197.13C213.131 198.28 212.781 199.42 212.351 200.53C212.471 200.57 212.601 200.6 212.721 200.64C214.291 201.17 216.011 201.93 217.661 202.91C218.581 204.56 219.381 206.35 220.001 208.3C221.451 212.88 222.191 216.78 222.501 220.05C220.761 221.96 218.411 223.51 215.971 224.74C216.361 225.83 216.591 227.02 216.621 228.34C216.811 235.9 211.441 239.18 205.041 240.16C205.061 242.41 204.321 244.67 202.501 246.76C200.421 249.15 197.661 250.3 194.721 250.54C194.141 251.74 193.211 252.81 192.001 253.64C187.991 256.41 183.111 256.28 179.001 253.85C174.481 251.18 174.991 245.95 177.751 242.97C184.141 239.52 192.691 233.08 196.011 222.3L196.001 222.29Z" fill="#626262"/>
<path d="M170.001 246.29C170.001 246.29 190.411 240.45 196.001 222.29C200.001 209.29 197.001 200.29 194.001 192.29C191.001 184.29 214.001 189.29 220.001 208.29C226.001 227.29 220.001 234.48 220.001 234.48C220.001 234.48 233.001 243.29 226.001 246.29C219.001 249.29 213.131 246.29 213.131 246.29C213.131 246.29 225.001 255.29 219.001 259.29C213.001 263.29 206.001 256.29 206.001 256.29C206.001 256.29 214.001 266.29 207.001 270.29C200.001 274.29 194.001 263.29 194.001 263.29C194.001 263.29 198.001 274.29 192.001 275.29C186.001 276.29 183.001 266.29 183.001 266.29C183.001 266.29 181.131 277.76 175.001 275.29C168.871 272.82 165.001 261.29 165.001 261.29L170.001 246.29V246.29Z" stroke="#514D49" stroke-width="5" stroke-linecap="round" stroke-linejoin="round"/>
<path d="M56.9807 262.59C64.5807 273.31 68.6307 275.77 68.6307 275.77C67.7407 282.17 68.4407 286.27 77.4307 287.27C83.8307 287.98 88.4007 284.97 92.0507 280.08C93.0107 280.15 93.9807 280.22 95.0007 280.3C99.4807 280.66 102.751 280.49 105.001 280.2C104.911 281.15 105.371 282.05 106.501 282.8C112.501 286.8 154.501 287.74 165.501 276.8C176.501 265.86 176.501 251.8 170.501 228.8C166.531 213.58 155.111 205.8 145.811 194.16L132.631 167.68L94.3607 164.95L33.5007 178.5L25.7407 198.04L34.4407 207.24C33.9407 209.3 33.7607 211.5 33.9007 213.84C36.5007 222.81 44.5107 239.62 47.5107 247.71C50.5107 255.8 56.9907 262.6 56.9907 262.6L56.9807 262.59Z" fill="#626262"/>
<path d="M113.5 270.79C117.45 269.3 122.17 270.2 126.39 270.14C118.78 264.82 111.94 253.35 119.45 246.84C119.59 246.72 119.73 246.63 119.87 246.52C117.83 244.27 120.89 241.36 121.5 237.79C122.48 231.98 126.17 230.89 131.5 228.79C138.58 225.99 142.23 226.07 148.5 228.79C149.55 227.33 151.37 223.18 153.13 222.79C153.29 221.88 153.53 221 153.86 220.18C155.55 215.98 160.04 214.12 164.31 215.52C166.97 219.39 169.16 223.66 170.49 228.78C173.78 241.38 175.26 251.29 174.12 259.48C173.26 260.01 172.27 260.36 171.19 260.43C171.19 261.63 171.12 262.83 170.96 264.01C170.81 265.16 170.48 266.25 169.99 267.22C170.28 268.36 170.39 269.48 170.34 270.59C169.05 272.77 167.44 274.83 165.48 276.78C161.78 280.46 154.56 282.79 146.4 284.12C143.69 284.06 141.01 283.95 138.51 283.98C130.25 284.09 121.98 284.19 113.72 284.3C104.71 284.42 104.25 274.27 113.49 270.79H113.5ZM145 269.9C144.88 269.86 144.77 269.81 144.65 269.77C144.58 269.82 144.51 269.86 144.44 269.91C144.63 269.91 144.81 269.91 145 269.91V269.9ZM142.68 252.09C142.81 251.83 142.96 251.57 143.13 251.33C142.61 251.25 142.1 251.19 141.58 251.13C141.94 251.45 142.3 251.77 142.67 252.09H142.68Z" fill="#F1B243"/>
<path d="M71.4307 38.2501C71.4307 38.2501 61.0907 22.2801 52.0007 16.2901C42.9107 10.3001 22.8907 -0.0999324 9.94066 3.10007C10.0007 17.2901 8.00066 26.0601 8.00066 33.2901C8.00066 41.2901 9.94066 44.1101 9.94066 44.1101C9.94066 44.1101 2.91066 49.9601 7.00066 53.2901C11.0907 56.6201 18.0007 54.2901 18.0007 54.2901C18.0007 54.2901 3.00066 62.2901 9.00066 65.2901C15.0007 68.2901 17.7507 65.2901 17.7507 65.2901C17.7507 65.2901 6.00066 75.2901 11.0007 79.2901C16.0007 83.2901 28.0007 82.2901 28.0007 82.2901L71.4307 38.2501V38.2501Z" fill="#F1B243" stroke="#514D49" stroke-width="5" stroke-linecap="round" stroke-linejoin="round"/>
<path d="M9.81017 9.8999C23.7902 17.3499 36.9602 26.2699 49.1502 36.5899C51.5702 38.6399 51.5602 41.2599 50.3202 43.3099C53.6702 45.3699 57.0402 47.3999 60.4102 49.4199L50.5402 59.4199C46.7002 57.6699 43.0002 55.6099 39.3202 53.5099C39.0402 53.8099 38.7202 54.0799 38.3602 54.3099C38.6002 56.0599 38.2102 57.8799 37.1002 59.4699C34.7702 62.8099 30.0002 64.1799 26.1802 64.8799C25.5802 64.9899 24.9802 65.0799 24.3802 65.1599C26.4002 70.5599 20.8302 76.7299 14.6702 76.2999C12.7802 76.1699 11.3502 75.3299 10.3902 74.1599C12.0202 70.5299 16.2802 66.5899 17.4402 65.5599C16.5902 66.2199 13.8602 67.7399 8.99016 65.2999C2.99016 62.2999 17.9902 54.2999 17.9902 54.2999C17.9902 54.2999 12.7802 55.9999 8.77016 54.3399C10.2902 53.4499 12.0402 52.9399 13.8702 52.8299C11.9102 52.3899 9.96016 51.9099 8.02016 51.3499C7.11016 51.0899 6.37016 50.6799 5.76016 50.1899C6.21016 47.2199 9.93016 44.1199 9.93016 44.1199C9.93016 44.1199 8.71016 42.3299 8.20016 37.5899C8.38016 35.5499 9.52016 33.6499 11.5102 32.7599C10.3602 31.9899 9.22016 31.2099 8.07016 30.4399C8.38016 25.0499 9.42016 18.6399 9.79016 9.8999H9.81017Z" fill="#484848"/>
<path d="M71.4307 38.2501C71.4307 38.2501 61.0907 22.2801 52.0007 16.2901C42.9107 10.3001 22.8907 -0.0999324 9.94066 3.10007C10.0007 17.2901 8.00066 26.0601 8.00066 33.2901C8.00066 41.2901 9.94066 44.1101 9.94066 44.1101C9.94066 44.1101 2.91066 49.9601 7.00066 53.2901C11.0907 56.6201 18.0007 54.2901 18.0007 54.2901C18.0007 54.2901 3.00066 62.2901 9.00066 65.2901C15.0007 68.2901 17.7507 65.2901 17.7507 65.2901C17.7507 65.2901 6.00066 75.2901 11.0007 79.2901C16.0007 83.2901 28.0007 82.2901 28.0007 82.2901L71.4307 38.2501V38.2501Z" stroke="#514D49" stroke-width="5" stroke-linecap="round" stroke-linejoin="round"/>
<path d="M140.001 182.29C159.001 176.29 150.001 165.29 150.001 165.29C150.001 165.29 155.001 174.29 160.001 170.29C167.191 164.54 152.001 148.29 152.001 148.29C152.001 148.29 162.641 161.01 169.001 155.29C177.571 147.58 159.711 127.79 159.711 127.79C159.711 127.79 172.281 135.88 175.001 128.29C180.001 114.29 155.131 86.28 155.131 86.28C155.131 86.28 172.001 103.29 174.521 97.84C177.041 92.39 167.011 80.29 167.011 80.29C167.011 80.29 172.011 86.29 174.521 81.93C177.031 77.57 169.011 70.29 169.011 70.29C169.011 70.29 177.801 79.13 180.011 70.29C182.011 62.29 173.011 56.29 173.011 56.29C183.341 50.09 185.011 25.29 186.011 10.29C164.011 10.29 122.011 28.29 117.011 42.29C104.011 37.29 91.0107 36.29 79.0107 36.29C60.0107 36.29 42.3807 45.67 30.5107 58.79C21.0107 69.29 17.5107 77.79 15.0107 87.29C15.0107 87.29 0.0107422 99.29 4.01074 109.29C6.01074 114.29 13.0107 109.29 13.0107 109.29C13.0107 109.29 0.740742 122.79 3.01074 131.29C5.28074 139.79 19.0107 142.29 19.0107 142.29" fill="#F1B243"/>
<path d="M111.59 184.07C113.01 180.7 116.8 178.48 120.16 179.07C119.06 171.8 129.09 167.09 133.99 174.17C136.22 177.4 138.46 180.62 140.69 183.85L145.81 194.15C148.67 197.73 151.74 200.95 154.72 204.13C158.43 209.49 162.03 214.93 165.85 220.21C173.49 230.78 163.74 234.3 157.59 230.47C157.47 230.4 157.35 230.32 157.23 230.24C155.82 230.04 152.36 229.42 150.97 228.27C149.39 226.96 147.81 225.65 146.23 224.35C146.13 224.28 146.03 224.22 145.94 224.15C143.98 227.63 139.64 229.87 135.67 227.22C128.04 222.13 121.54 215.95 116.17 208.52C112.73 204.84 109.33 196.97 106.5 192.79C100.83 184.39 106.32 184.34 111.59 184.07V184.07Z" fill="#484848"/>
<path d="M33.5001 178.48L44.5101 176.03C45.7901 177.48 46.5201 179.35 46.2201 181.36C47.1301 182.59 47.7401 184.1 47.9101 185.66C51.3301 186.08 54.3001 189.06 54.7801 193.06C54.8901 193.98 55.0201 194.89 55.1601 195.81C59.3601 195.03 64.2001 197.39 64.1101 202.9C63.9801 210.83 63.8501 218.77 63.7201 226.7C63.6101 233.52 52.8101 237.72 49.7401 230.49C47.2501 224.63 45.2101 218.72 43.5801 212.71C40.9601 215.25 36.7801 215.36 33.8701 213.24C33.7901 211.12 33.9601 209.11 34.4201 207.23L29.2301 201.74C29.2201 201.66 29.2001 201.58 29.1901 201.5C29.1101 201.49 29.0301 201.46 28.9501 201.44L25.7301 198.03L33.4901 178.49L33.5001 178.48Z" fill="#484848"/>
<path d="M40.8902 66.1098C47.0302 66.2098 53.1802 66.2998 59.3202 66.3998C49.7502 59.1498 54.4102 43.2198 66.9702 42.9298C77.0802 42.6998 87.1802 42.4598 97.2902 42.2298C110.35 41.9298 113.22 57.6898 105.89 64.8198C111.42 68.2898 114.68 76.7398 110.51 82.5698C106.92 87.5998 102.55 90.1898 97.7102 91.4998C101.69 98.3198 98.7002 109.53 90.0602 110.81C87.4902 111.19 84.9102 111.57 82.3402 111.95C82.1702 113.74 81.6102 115.47 80.5502 116.95C74.7002 125.13 64.6302 130.16 54.6002 126.3C48.0502 123.78 43.5302 117.55 45.5202 110.31C45.9002 108.93 46.5802 107.61 47.4602 106.39C46.5402 103.37 46.4802 99.9998 47.4002 97.0698C42.7402 95.4398 38.2602 93.3298 34.3402 90.3198C29.6802 86.7398 26.7002 81.7098 28.3702 75.6398C29.8702 70.1998 35.2102 66.0098 40.9102 66.0998L40.8902 66.1098ZM62.2002 101.48C62.6402 101.61 62.5402 101.51 62.2002 101.48V101.48Z" fill="#F9D168"/>
<path d="M119.89 135.53C109.82 132.27 104.31 124.15 103.37 113.83C102.47 103.95 102.82 94.1099 104.04 84.3199C103.92 83.9699 103.81 83.6099 103.71 83.2499C102.23 77.8599 102.9 70.6899 105.98 65.9099C111.92 56.6999 126.76 50.1899 136.76 57.8399C137.05 58.0599 137.32 58.2899 137.6 58.5099C142.09 60.8399 145.39 64.2899 147.43 68.4399C151.35 73.6899 154.01 79.6199 155.23 86.3799C155.17 86.3199 155.13 86.2799 155.13 86.2799C155.13 86.2799 155.17 86.3299 155.24 86.3999C155.58 88.2799 155.81 90.2099 155.91 92.2199C156.53 103.86 152.16 115.9 145.3 125.19C139.52 133.02 130.03 138.81 119.89 135.53V135.53Z" fill="#F5C345"/>
<path d="M133.4 67.2999C129 63.7999 132.7 57.6799 137.31 57.1699C135.96 54.4899 136.66 50.8999 139.45 49.2299C138.99 47.7799 139.08 46.0999 139.91 44.4199C143.38 37.3599 150.43 33.7699 157.61 31.4599C166.38 28.6299 175.53 27.0099 184.67 25.9399C184.18 30.0799 183.54 34.2799 182.65 38.2099C176.33 39.0799 170.08 40.3899 163.93 42.1199C163.07 42.3599 162.2 42.6099 161.33 42.8699C166.82 43.3399 172.3 43.8199 177.79 44.2899C178.82 44.3399 179.86 44.4199 180.89 44.4899C179.09 49.7699 176.6 54.0399 173.14 56.1899C172.03 56.1899 170.92 56.1899 169.81 56.2299C171.57 56.7699 173.32 57.3199 175.02 57.9199C177.54 60.2299 181.37 64.7799 180 70.2899C179.44 72.5399 178.45 73.6399 177.28 74.0399C175.38 73.4799 173.48 72.9399 171.58 72.4099C170.62 71.7499 169.83 71.0699 169.39 70.6599C169.73 70.9899 170.27 71.5299 170.88 72.2199C169.2 71.7599 167.52 71.2799 165.83 70.8399C166.99 72.0399 168.04 73.3399 168.88 74.8399C170.22 77.2399 169.7 79.7899 168.25 81.5599C167.5 80.8899 167.01 80.2999 167.01 80.2999C167.01 80.2999 167.45 80.8299 168.12 81.7099C167.68 82.2099 167.17 82.6499 166.6 82.9899C168.66 85.9499 170.47 89.0899 171.95 92.4799C172.96 94.7899 172.51 96.9999 171.35 98.6699C165.69 96.9099 155.14 86.2799 155.14 86.2799C155.14 86.2799 161.16 93.0599 166.68 101.62C164.69 101.88 162.68 101.03 161.59 98.5299C155.78 85.2299 144.51 76.1299 133.41 67.2999H133.4Z" fill="#484848"/>
<path d="M13.0007 109.29C13.0007 109.29 6.00071 114.29 4.00071 109.29C0.000709534 99.29 15.0007 87.29 15.0007 87.29C17.5007 77.79 21.0007 69.29 30.5007 58.79C33.8407 55.1 37.6507 51.72 41.8007 48.75C52.4207 52.5 61.1607 64.58 56.9607 76.23C51.9307 90.17 45.9007 103.79 38.6707 116.73C32.9207 127.01 17.9707 131.3 7.89072 124.8C6.65072 124 5.50072 123.1 4.45072 122.13C7.38072 115.49 13.0107 109.29 13.0107 109.29H13.0007Z" fill="#F5C345"/>
<path d="M140.001 182.29C159.001 176.29 150.001 165.29 150.001 165.29C150.001 165.29 155.001 174.29 160.001 170.29C167.191 164.54 152.001 148.29 152.001 148.29C152.001 148.29 162.641 161.01 169.001 155.29C177.571 147.58 159.711 127.79 159.711 127.79C159.711 127.79 172.281 135.88 175.001 128.29C180.001 114.29 155.131 86.28 155.131 86.28C155.131 86.28 172.001 103.29 174.521 97.84C177.041 92.39 167.011 80.29 167.011 80.29C167.011 80.29 172.011 86.29 174.521 81.93C177.031 77.57 169.011 70.29 169.011 70.29C169.011 70.29 177.801 79.13 180.011 70.29C182.011 62.29 173.011 56.29 173.011 56.29C183.341 50.09 185.011 25.29 186.011 10.29C164.011 10.29 122.011 28.29 117.011 42.29C104.011 37.29 91.0107 36.29 79.0107 36.29C60.0107 36.29 42.3807 45.67 30.5107 58.79C21.0107 69.29 17.5107 77.79 15.0107 87.29C15.0107 87.29 0.0107422 99.29 4.01074 109.29C6.01074 114.29 13.0107 109.29 13.0107 109.29C13.0107 109.29 0.740742 122.79 3.01074 131.29C5.28074 139.79 19.0107 142.29 19.0107 142.29" stroke="#514D49" stroke-width="5" stroke-linecap="round" stroke-linejoin="round"/>
<path d="M81.62 105.41C81.62 116.8 86.52 127.79 103.56 127.79C114.97 127.79 123 116.68 123 105.29C123 93.9002 115 85.2902 103.56 84.7902C91.46 84.2602 81.62 94.0202 81.62 105.41Z" fill="#FFFEFC" stroke="#514D49" stroke-width="5" stroke-linecap="round" stroke-linejoin="round"/>
<path d="M24.5 104.29C24.5 114.51 26.32 122.79 33.5 122.79C40.68 122.79 50.5 114.51 50.5 104.29C50.5 94.07 47.68 84.79 40.5 84.79C33.32 84.79 24.5 94.07 24.5 104.29Z" fill="#FFFEFC" stroke="#514D49" stroke-width="5" stroke-linecap="round" stroke-linejoin="round"/>
<path d="M81.5 104.97C81.5 115.29 88.47 127.79 97.5 127.79C106.53 127.79 114.5 115.11 114.5 104.79C114.5 94.4698 106.89 86.2798 97.86 86.2798C88.83 86.2798 81.5 94.6498 81.5 104.97V104.97Z" fill="#514D49"/>
<path d="M34.5 88.79C40.85 88.79 42.5 96.28 42.5 104.29C42.5 112.3 37.35 118.79 31 118.79C29.36 118.79 27.81 118.35 26.4 117.58C24.98 114.22 24.5 109.51 24.5 104.29C24.5 98.57 27.27 93.14 30.97 89.47C32.18 89.04 33.38 88.79 34.5 88.79V88.79Z" fill="#514D49"/>
<path d="M35.2207 204.78C30.8507 215.64 37.3307 230.87 49.6507 251.3C61.9707 271.73 68.6407 275.77 68.6407 275.77C75.0107 278.3 77.5607 279.3 77.5607 279.3C77.5607 279.3 85.0107 279.5 95.0107 280.3C105.011 281.1 109.011 279.3 109.011 279.3" stroke="#514D49" stroke-width="5" stroke-linecap="round" stroke-linejoin="round"/>
<path d="M33.0005 221.29C33.0005 221.29 29.9105 213.6 30.2205 204.61C30.5305 195.62 37.7305 189.86 37.7305 189.86" stroke="#514D49" stroke-width="5" stroke-linecap="round" stroke-linejoin="round"/>
<path d="M10.5 167.67C5.75 161.79 2.5 155.29 2.5 148.79C2.5 135.79 7.5 130.79 7.5 130.79C7.5 130.79 9.99999 125.29 23.5 119.79C37 114.29 51.24 113.15 51.24 113.15C51.24 113.15 52.5 108.78 56 109.29C59.5 109.8 59 111.29 59 111.29C58.84 111.31 61 109.29 64 109.29C68.13 109.29 69 113.29 69 113.29C69 113.29 71 111.29 74.85 112.01C77.31 112.47 79 117.29 79 117.29C79 117.29 86 117.29 109 123.29C128.06 128.26 141.71 145.35 143 158.29" fill="#F9D168"/>
<path d="M10.5 167.67C5.75 161.79 2.5 155.29 2.5 148.79C2.5 135.79 7.5 130.79 7.5 130.79C7.5 130.79 9.99999 125.29 23.5 119.79C37 114.29 51.24 113.15 51.24 113.15C51.24 113.15 52.5 108.78 56 109.29C59.5 109.8 59 111.29 59 111.29C58.84 111.31 61 109.29 64 109.29C68.13 109.29 69 113.29 69 113.29C69 113.29 71 111.29 74.85 112.01C77.31 112.47 79 117.29 79 117.29C79 117.29 86 117.29 109 123.29C128.06 128.26 141.71 145.35 143 158.29" stroke="#514D49" stroke-width="5" stroke-linecap="round" stroke-linejoin="round"/>
<path d="M40.5703 164.94C40.2603 173.93 34.0703 176.9 28.8603 185.55C23.0003 195.29 26.3603 205.39 30.1803 208.84" stroke="#514D49" stroke-width="5" stroke-linecap="round" stroke-linejoin="round"/>
<path d="M65.0704 233.51C65.4604 229.1 69.2304 226.51 72.7904 226.66C74.4004 224.2 77.7404 222.83 80.6004 223.33C80.9404 221.49 81.5204 219.68 82.5304 217.94C84.3204 214.86 89.0004 213.26 92.1104 215.43C94.6804 217.23 96.8004 219.36 98.4904 221.74C102.11 221.57 105.84 223.82 105.81 228.49C105.77 234.66 105.72 240.84 105.68 247.01C105.64 252.58 106.14 258.58 103.15 263.55C100.35 268.21 96.2904 272.39 92.9104 276.64C90.7104 279.41 88.5304 282.85 85.9504 285.67C83.5104 287.01 80.7104 287.63 77.4404 287.26C68.4504 286.26 67.7504 282.17 68.6404 275.76C68.6404 275.76 67.9004 275.31 66.4704 273.97C66.5804 272.36 66.7304 270.79 66.8704 269.33C67.3904 263.45 68.4004 257.44 67.5004 251.54C66.5704 245.44 64.5304 239.77 65.0804 233.5L65.0704 233.51ZM82.2604 261.23C82.0504 261.28 81.8304 261.33 81.6204 261.37C81.5804 261.93 81.5404 262.49 81.4804 263.05C81.7404 262.44 81.9904 261.84 82.2604 261.23V261.23Z" fill="#F1B243"/>
<path d="M102.67 222.08C102.67 222.08 106.82 247.24 101.34 261.06C95.8602 274.88 90.3902 288.7 77.4402 287.26C64.4802 285.82 68.7502 277.96 70.1602 266C71.5702 254.04 68.2802 232.92 68.2802 232.92" fill="#F1B243"/>
<path d="M102.67 222.08C102.67 222.08 106.82 247.24 101.34 261.06C95.8602 274.88 90.3902 288.7 77.4402 287.26C64.4802 285.82 68.7502 277.96 70.1602 266C71.5702 254.04 68.2802 232.92 68.2802 232.92" stroke="#514D49" stroke-width="5" stroke-linecap="round" stroke-linejoin="round"/>
<path d="M138 157.29C138 177.29 123 184.29 81.5 187.7C67.95 188.81 47 184.29 28 176.29C21.35 173.49 9 166.29 10 154.29" fill="#F9D168"/>
<path d="M138 157.29C138 177.29 123 184.29 81.5 187.7C67.95 188.81 47 184.29 28 176.29C21.35 173.49 9 166.29 10 154.29" stroke="#514D49" stroke-width="5" stroke-linecap="round" stroke-linejoin="round"/>
<path d="M5.43027 160.82C5.55027 160.58 5.66028 160.34 5.79028 160.12C6.35028 159.15 7.00027 158.3 7.71027 157.54C7.76027 156.07 8.03028 154.56 8.54028 153.03C11.1403 145.29 18.2903 141.26 26.3003 142.95C32.9703 144.35 39.5703 146.14 46.0503 148.28C48.9703 142.35 56.3903 138.06 62.9303 140.47C64.4903 141.04 66.0403 141.64 67.5903 142.24C70.4703 135.85 77.6903 132.59 84.5803 134.23C102.5 138.5 118.56 147.04 132.77 158.66C135.05 160.52 136.33 163.15 136.78 165.98C133.04 177.74 120.26 183.34 93.9703 186.48C92.9603 185.9 91.9403 185.33 90.9303 184.77C90.7303 185.22 90.5003 185.66 90.2503 186.09C90.0703 186.39 89.8803 186.67 89.6803 186.96C87.0703 187.23 84.3603 187.49 81.5103 187.72C76.0303 188.17 69.3203 187.68 62.0303 186.43C59.1803 184.91 56.3103 183.49 53.4203 182.16C53.1703 182.94 52.8603 183.7 52.4703 184.43C44.4403 182.45 36.0603 179.7 28.0203 176.31C22.6803 174.06 9.80029 168.97 5.45029 160.84L5.43027 160.82Z" fill="#F1B243"/>
<path d="M74.0596 123.62C75.6396 129.21 64.1796 138.58 55.8596 137.74C47.5396 136.91 40.6296 130.29 41.1696 123.62C41.7196 116.95 54.1896 116.95 61.6796 117.78C69.1696 118.61 73.1196 120.31 74.0496 123.62H74.0596Z" fill="#514D49"/>
<path d="M66 145.29C66 145.29 60.11 147.34 62 159.29C63.55 169.09 51.29 173.8 45 168.29C37 161.29 39.69 149.54 46 143.29" fill="#E1737D"/>
<path d="M66 145.29C66 145.29 60.11 147.34 62 159.29C63.55 169.09 51.29 173.8 45 168.29C37 161.29 39.69 149.54 46 143.29" stroke="#514D49" stroke-width="5" stroke-linecap="round" stroke-linejoin="round"/>
<path d="M55 142.29C55 142.29 53.52 144.72 52 149.29C50 155.29 51 158.29 51 158.29" stroke="#514D49" stroke-width="5" stroke-linecap="round" stroke-linejoin="round"/>
<path d="M86 153.29C75 151.29 67 142.29 54 142.29C41 142.29 38.15 145.53 33.05 147.25" stroke="#514D49" stroke-width="5" stroke-linecap="round" stroke-linejoin="round"/>
<path d="M55.5 138.79V142.29" stroke="#514D49" stroke-width="5" stroke-linecap="round" stroke-linejoin="round"/>
<path d="M138 157.29C138 177.29 123 184.29 81.5 187.7C67.95 188.81 47 184.29 28 176.29C21.35 173.49 9 166.29 10 154.29" stroke="#514D49" stroke-width="5" stroke-linecap="round" stroke-linejoin="round"/>
<path d="M10.5 167.67C5.75 161.79 2.5 155.29 2.5 148.79C2.5 135.79 7.5 130.79 7.5 130.79C7.5 130.79 9.99999 125.29 23.5 119.79C37 114.29 51.24 113.15 51.24 113.15C51.24 113.15 52.5 108.78 56 109.29C59.5 109.8 59 111.29 59 111.29C58.84 111.31 61 109.29 64 109.29C68.13 109.29 69 113.29 69 113.29C69 113.29 71 111.29 74.85 112.01C77.31 112.47 79 117.29 79 117.29C79 117.29 86 117.29 109 123.29C128.06 128.26 141.71 145.35 143 158.29" stroke="#514D49" stroke-width="5" stroke-linecap="round" stroke-linejoin="round"/>
<path d="M102.27 73.6201C101.92 73.5601 101.57 73.5001 101.22 73.4501L103.21 73.7201C101.24 73.4601 99.2503 73.4701 97.2803 73.7201L99.2703 73.4501C97.6503 73.6801 96.0703 74.0701 94.5403 74.6301C93.5403 74.9401 92.5503 74.9901 91.5503 74.7601C90.5503 74.7101 89.6203 74.4201 88.7603 73.8701C87.2003 72.9601 85.7203 71.1801 85.3103 69.3901C84.8703 67.4701 84.9703 65.3201 86.0703 63.6101L87.2403 62.0901C88.1803 61.1601 89.2803 60.5201 90.5503 60.1601C93.0503 59.2501 95.6903 58.8301 98.3403 58.6001C100.99 58.3701 103.65 58.6801 106.26 59.1501C107.24 59.3801 108.09 59.8301 108.81 60.4901C109.63 61.0201 110.27 61.7201 110.74 62.5901C111.68 64.2001 112.08 66.5701 111.5 68.3701C110.92 70.1701 109.79 71.9401 108.05 72.8501L106.26 73.6101C104.93 73.9701 103.6 73.9701 102.27 73.6101V73.6201Z" fill="#484848"/>
<path d="M54.3 70.9999C50.87 70.0399 47.44 69.0799 44.01 68.1099C42.19 67.5999 40.48 66.2999 39.53 64.6599C38.98 63.7999 38.69 62.8699 38.64 61.8699C38.42 60.8699 38.46 59.8799 38.77 58.8799C39.36 57.0699 40.48 55.3099 42.22 54.3999C43.96 53.4899 46.02 53.0899 48 53.6399C51.43 54.5999 54.86 55.5599 58.29 56.5299C60.11 57.0399 61.82 58.3399 62.77 59.9799C63.32 60.8399 63.61 61.7699 63.66 62.7699C63.88 63.7699 63.84 64.7599 63.53 65.7599C62.94 67.5699 61.82 69.3299 60.08 70.2399C58.34 71.1499 56.28 71.5499 54.3 70.9999Z" fill="#484848"/>
<path d="M124.25 285.51C123.94 285.51 123.63 285.49 123.32 285.48C123.42 285.32 123.52 285.16 123.61 285L124.25 285.51Z" fill="#F9D168"/>
<path d="M126.5 270.79C126.5 270.79 115.4 260.44 119.77 243.31C122.48 243.62 124.97 245.04 127.24 247.03C127.64 244.05 129.47 241.72 133.92 241C141.79 239.73 148.87 248.85 152.43 254.74C156.79 261.96 158.82 270.5 158.22 278.9C158.15 279.82 157.93 280.63 157.6 281.35C148.49 284.7 135.13 285.79 124.25 285.52L123.61 285.01C123.52 285.18 123.42 285.34 123.32 285.49C115.2 285.23 108.62 284.2 106.51 282.79C100.51 278.79 113.51 270.79 126.51 270.79H126.5Z" fill="#F9D168"/>
<path d="M77.4404 287.26C64.4804 285.82 68.7504 277.96 70.1604 266C70.6104 262.19 70.5804 257.45 70.3304 252.76C73.0704 252.05 75.8504 252.33 78.5504 253.25C79.5004 251.33 81.3004 249.78 83.9404 249.48C90.9604 248.68 99.2804 249.87 102.65 256.86C102.29 258.34 101.86 259.75 101.34 261.05C95.8704 274.87 90.3904 288.69 77.4404 287.25V287.26ZM73.9404 265.31C73.9404 265.31 73.9004 265.33 73.8804 265.34C73.9104 265.33 73.9404 265.32 73.9604 265.31C73.9604 265.31 73.9404 265.31 73.9304 265.31H73.9404Z" fill="#F9D168"/>
<path d="M102.67 222.08C102.67 222.08 106.82 247.24 101.34 261.06C95.8602 274.88 90.3902 288.7 77.4402 287.26C64.4802 285.82 68.7502 277.96 70.1602 266C71.5702 254.04 68.2802 232.92 68.2802 232.92" stroke="#514D49" stroke-width="5" stroke-linecap="round" stroke-linejoin="round"/>
<path d="M163.501 242.79C160.501 232.79 153.991 229.78 146.501 226.79C141.501 224.79 125.501 225.79 120.501 240.79C114.291 259.43 126.501 270.79 126.501 270.79C113.501 270.79 100.501 278.79 106.501 282.79C112.501 286.79 154.501 287.73 165.501 276.79C176.501 265.85 176.501 251.79 170.501 228.79C164.501 205.79 141.501 199.79 134.501 171.79" stroke="#514D49" stroke-width="5" stroke-linecap="round" stroke-linejoin="round"/>
<path d="M163.501 242.79C160.501 232.79 153.991 229.78 146.501 226.79C141.501 224.79 125.501 225.79 120.501 240.79C114.291 259.43 126.501 270.79 126.501 270.79C113.501 270.79 100.501 278.79 106.501 282.79C112.501 286.79 154.501 287.73 165.501 276.79C176.501 265.85 176.501 251.79 170.501 228.79C164.501 205.79 141.501 199.79 134.501 171.79" stroke="#514D49" stroke-width="5" stroke-linecap="round" stroke-linejoin="round"/>
</g>
<defs>
<clipPath id="clip0_7205_210294">
<rect width="230.57" height="289.86" fill="white" transform="matrix(-1 0 0 1 230.57 0)"/>
</clipPath>
</defs>
</svg>
